<mxfile host="Electron" modified="2024-05-02T22:31:57.810Z" agent="Mozilla/5.0 (Windows NT 10.0; Win64; x64) AppleWebKit/537.36 (KHTML, like Gecko) draw.io/24.2.5 Chrome/120.0.6099.109 Electron/28.1.0 Safari/537.36" etag="E0lsxFqPI0ec2rR3ZLlh" version="24.2.5" type="device">
  <diagram name="Estágios Grade Final" id="0WL5AFq9XeK3Pr9UVOts">
    <mxGraphModel dx="875" dy="518" grid="1" gridSize="10" guides="1" tooltips="1" connect="1" arrows="1" fold="1" page="1" pageScale="1" pageWidth="800" pageHeight="400" math="0" shadow="0">
      <root>
        <mxCell id="0" />
        <mxCell id="1" parent="0" />
        <mxCell id="ZqxSn82WAsr6fAu4WX8K-9" value="" style="rounded=0;whiteSpace=wrap;html=1;fillColor=none;strokeWidth=2;dashed=1;perimeterSpacing=0;dashPattern=8 8;" parent="1" vertex="1">
          <mxGeometry x="20" y="20" width="160" height="340" as="geometry" />
        </mxCell>
        <mxCell id="ZqxSn82WAsr6fAu4WX8K-20" style="rounded=0;orthogonalLoop=1;jettySize=auto;html=1;exitX=1;exitY=0.5;exitDx=0;exitDy=0;entryX=0;entryY=0.5;entryDx=0;entryDy=0;" parent="1" source="ZqxSn82WAsr6fAu4WX8K-2" target="ZqxSn82WAsr6fAu4WX8K-10" edge="1">
          <mxGeometry relative="1" as="geometry" />
        </mxCell>
        <mxCell id="ZqxSn82WAsr6fAu4WX8K-2" value="DISPONIBILIDADE&amp;nbsp; DE TEMPO DO PROFESSOR" style="rounded=0;whiteSpace=wrap;html=1;fillColor=none;" parent="1" vertex="1">
          <mxGeometry x="40" y="160" width="120" height="60" as="geometry" />
        </mxCell>
        <mxCell id="ZqxSn82WAsr6fAu4WX8K-21" style="rounded=0;orthogonalLoop=1;jettySize=auto;html=1;exitX=1;exitY=0.5;exitDx=0;exitDy=0;entryX=0;entryY=0;entryDx=0;entryDy=0;" parent="1" source="ZqxSn82WAsr6fAu4WX8K-3" target="ZqxSn82WAsr6fAu4WX8K-10" edge="1">
          <mxGeometry relative="1" as="geometry" />
        </mxCell>
        <mxCell id="ZqxSn82WAsr6fAu4WX8K-3" value="RECURSOS DE INFRAESTRUTURA" style="rounded=0;whiteSpace=wrap;html=1;fillColor=none;" parent="1" vertex="1">
          <mxGeometry x="40" y="40" width="120" height="40" as="geometry" />
        </mxCell>
        <mxCell id="ZqxSn82WAsr6fAu4WX8K-22" style="edgeStyle=none;rounded=0;orthogonalLoop=1;jettySize=auto;html=1;exitX=1;exitY=0.5;exitDx=0;exitDy=0;entryX=0;entryY=0.25;entryDx=0;entryDy=0;" parent="1" source="ZqxSn82WAsr6fAu4WX8K-5" target="ZqxSn82WAsr6fAu4WX8K-10" edge="1">
          <mxGeometry relative="1" as="geometry" />
        </mxCell>
        <mxCell id="ZqxSn82WAsr6fAu4WX8K-5" value="MATRIZES CURRICULARES" style="rounded=0;whiteSpace=wrap;html=1;fillColor=none;" parent="1" vertex="1">
          <mxGeometry x="40" y="100" width="120" height="40" as="geometry" />
        </mxCell>
        <mxCell id="ZqxSn82WAsr6fAu4WX8K-23" style="edgeStyle=none;rounded=0;orthogonalLoop=1;jettySize=auto;html=1;exitX=1;exitY=0.5;exitDx=0;exitDy=0;entryX=0;entryY=0.75;entryDx=0;entryDy=0;" parent="1" source="ZqxSn82WAsr6fAu4WX8K-6" target="ZqxSn82WAsr6fAu4WX8K-10" edge="1">
          <mxGeometry relative="1" as="geometry" />
        </mxCell>
        <mxCell id="ZqxSn82WAsr6fAu4WX8K-6" value="ESTIMATIVA DE DEMANDA" style="rounded=0;whiteSpace=wrap;html=1;fillColor=none;" parent="1" vertex="1">
          <mxGeometry x="40" y="240" width="120" height="40" as="geometry" />
        </mxCell>
        <mxCell id="ZqxSn82WAsr6fAu4WX8K-24" style="edgeStyle=none;rounded=0;orthogonalLoop=1;jettySize=auto;html=1;exitX=1;exitY=0.5;exitDx=0;exitDy=0;entryX=0;entryY=1;entryDx=0;entryDy=0;" parent="1" source="ZqxSn82WAsr6fAu4WX8K-7" target="ZqxSn82WAsr6fAu4WX8K-10" edge="1">
          <mxGeometry relative="1" as="geometry" />
        </mxCell>
        <mxCell id="ZqxSn82WAsr6fAu4WX8K-7" value="POLÍTICAS INTERNAS" style="rounded=0;whiteSpace=wrap;html=1;fillColor=none;" parent="1" vertex="1">
          <mxGeometry x="40" y="300" width="120" height="40" as="geometry" />
        </mxCell>
        <mxCell id="ZqxSn82WAsr6fAu4WX8K-8" value="OBTENÇÃO DE INFORMAÇÃO" style="rounded=0;whiteSpace=wrap;html=1;fillColor=none;" parent="1" vertex="1">
          <mxGeometry x="40" y="380" width="120" height="40" as="geometry" />
        </mxCell>
        <mxCell id="ZqxSn82WAsr6fAu4WX8K-26" style="edgeStyle=none;rounded=0;orthogonalLoop=1;jettySize=auto;html=1;entryX=0;entryY=0.5;entryDx=0;entryDy=0;exitX=1;exitY=0.5;exitDx=0;exitDy=0;" parent="1" source="ZqxSn82WAsr6fAu4WX8K-10" target="ZqxSn82WAsr6fAu4WX8K-11" edge="1">
          <mxGeometry relative="1" as="geometry" />
        </mxCell>
        <mxCell id="ZqxSn82WAsr6fAu4WX8K-10" value="&lt;ul style=&quot;padding-left: 20px;&quot;&gt;&lt;li&gt;DEFINIÇÃO DAS GRADES&lt;/li&gt;&lt;li&gt;ATRIBUIÇÃO PRELIMINAR DAS SALAS&lt;/li&gt;&lt;/ul&gt;" style="rounded=0;whiteSpace=wrap;html=1;fillColor=none;align=left;" parent="1" vertex="1">
          <mxGeometry x="220" y="160" width="180" height="60" as="geometry" />
        </mxCell>
        <mxCell id="ZqxSn82WAsr6fAu4WX8K-27" style="edgeStyle=none;rounded=0;orthogonalLoop=1;jettySize=auto;html=1;exitX=1;exitY=0.5;exitDx=0;exitDy=0;entryX=0;entryY=0.5;entryDx=0;entryDy=0;" parent="1" source="ZqxSn82WAsr6fAu4WX8K-11" target="ZqxSn82WAsr6fAu4WX8K-12" edge="1">
          <mxGeometry relative="1" as="geometry" />
        </mxCell>
        <mxCell id="ZqxSn82WAsr6fAu4WX8K-11" value="&lt;ul style=&quot;padding-left: 20px;&quot;&gt;&lt;li&gt;PUBLICAÇÃO DAS GRADES&lt;/li&gt;&lt;li&gt;REGISTRO NAS TURMAS&lt;/li&gt;&lt;li&gt;AJUSTES DE DEMANDA&lt;/li&gt;&lt;/ul&gt;" style="rounded=0;whiteSpace=wrap;html=1;fillColor=none;align=left;" parent="1" vertex="1">
          <mxGeometry x="440" y="160" width="200" height="60" as="geometry" />
        </mxCell>
        <mxCell id="ZqxSn82WAsr6fAu4WX8K-28" style="edgeStyle=none;rounded=0;orthogonalLoop=1;jettySize=auto;html=1;exitX=1;exitY=0.5;exitDx=0;exitDy=0;entryX=0;entryY=0.5;entryDx=0;entryDy=0;" parent="1" source="ZqxSn82WAsr6fAu4WX8K-12" target="ZqxSn82WAsr6fAu4WX8K-13" edge="1">
          <mxGeometry relative="1" as="geometry" />
        </mxCell>
        <mxCell id="ZqxSn82WAsr6fAu4WX8K-12" value="DEFINIÇÃO FINAL DE SALAS" style="rounded=0;whiteSpace=wrap;html=1;fillColor=none;" parent="1" vertex="1">
          <mxGeometry x="680" y="160" width="120" height="60" as="geometry" />
        </mxCell>
        <mxCell id="ZqxSn82WAsr6fAu4WX8K-13" value="DEFINIÇÃO DAS GRADES&lt;br&gt;&lt;br&gt;ATRIBUIÇÃO DE SALA" style="ellipse;whiteSpace=wrap;html=1;aspect=fixed;fillColor=none;" parent="1" vertex="1">
          <mxGeometry x="840" y="130" width="120" height="120" as="geometry" />
        </mxCell>
        <mxCell id="ZqxSn82WAsr6fAu4WX8K-14" value="&lt;h1&gt;Estágio I&lt;/h1&gt;" style="text;html=1;align=center;verticalAlign=middle;whiteSpace=wrap;rounded=0;fillColor=none;" parent="1" vertex="1">
          <mxGeometry x="40" y="440" width="120" height="40" as="geometry" />
        </mxCell>
        <mxCell id="ZqxSn82WAsr6fAu4WX8K-15" value="&lt;h1&gt;Estágio III&lt;/h1&gt;" style="text;html=1;align=center;verticalAlign=middle;whiteSpace=wrap;rounded=0;fillColor=none;" parent="1" vertex="1">
          <mxGeometry x="480" y="280" width="120" height="40" as="geometry" />
        </mxCell>
        <mxCell id="ZqxSn82WAsr6fAu4WX8K-16" value="&lt;h1&gt;Estágio II&lt;/h1&gt;" style="text;html=1;align=center;verticalAlign=middle;whiteSpace=wrap;rounded=0;fillColor=none;" parent="1" vertex="1">
          <mxGeometry x="250" y="280" width="120" height="40" as="geometry" />
        </mxCell>
        <mxCell id="ZqxSn82WAsr6fAu4WX8K-25" value="&lt;h1&gt;Estágio IV&lt;/h1&gt;" style="text;html=1;align=center;verticalAlign=middle;whiteSpace=wrap;rounded=0;fillColor=none;" parent="1" vertex="1">
          <mxGeometry x="680" y="280" width="120" height="40" as="geometry" />
        </mxCell>
      </root>
    </mxGraphModel>
  </diagram>
</mxfile>
